<?xml version="1.0" encoding="utf-8"?>
<!-- Generator: Adobe Illustrator 15.1.0, SVG Export Plug-In . SVG Version: 6.00 Build 0)  -->
<!DOCTYPE svg PUBLIC "-//W3C//DTD SVG 1.1//EN" "http://www.w3.org/Graphics/SVG/1.1/DTD/svg11.dtd">
<svg version="1.1" id="Calque_1" xmlns="http://www.w3.org/2000/svg" xmlns:xlink="http://www.w3.org/1999/xlink" x="0px" y="0px"
	 width="1024px" height="768px" viewBox="0 0 1024 768" enable-background="new 0 0 1024 768" xml:space="preserve">
<path opacity="0.7" fill-rule="evenodd" clip-rule="evenodd" fill="#F16767" d="M894.277,464.855c6.144-1.019,6.129,7.645,1.176,8
	C890.659,473.199,888.745,465.772,894.277,464.855z M893.825,467.914c0.168,2.902,5.605,2.482,4-1.411
	C896.058,464.962,893.716,466.02,893.825,467.914z"/>
<path opacity="0.7" fill-rule="evenodd" clip-rule="evenodd" fill="#F16767" d="M943.362,318.187
	c6.201-1.028,6.187,7.716,1.188,8.074C939.712,326.608,937.779,319.112,943.362,318.187z M942.907,321.274
	c0.169,2.929,5.657,2.505,4.037-1.425C945.16,318.294,942.796,319.361,942.907,321.274z"/>
<path opacity="0.7" fill-rule="evenodd" clip-rule="evenodd" fill="#F16767" d="M665.139,15.626
	c12.925-2.144,12.894,16.082,2.475,16.829C657.528,33.178,653.501,17.555,665.139,15.626z M660.188,22.061
	c0.354,6.105,11.793,5.222,8.415-2.97C664.886,15.85,659.958,18.074,660.188,22.061z"/>
<path opacity="0.7" fill-rule="evenodd" clip-rule="evenodd" fill="#F16767" d="M853.805,240.5
	c12.925-2.144,12.894,16.082,2.475,16.829C846.194,258.052,842.167,242.429,853.805,240.5z M848.854,246.935
	c0.354,6.105,11.793,5.222,8.415-2.97C853.552,240.724,848.624,242.948,848.854,246.935z"/>
<path opacity="0.7" fill-rule="evenodd" clip-rule="evenodd" fill="#F16767" d="M858.08,523.123
	c12.925-2.144,12.894,16.082,2.475,16.829C850.47,540.675,846.442,525.052,858.08,523.123z M856.13,528.558
	c0.354,6.105,11.793,5.222,8.415-2.97C860.827,522.347,855.899,524.57,856.13,528.558z"/>
<path opacity="0.7" fill-rule="evenodd" clip-rule="evenodd" fill="#F16767" d="M851.336,89.022
	c8.156-1.353,8.137,10.148,1.562,10.619C846.534,100.097,843.992,90.239,851.336,89.022z M850.105,92.451
	c0.223,3.853,7.441,3.295,5.311-1.874C853.069,88.532,849.96,89.935,850.105,92.451z"/>
<path opacity="0.7" fill-rule="evenodd" clip-rule="evenodd" fill="#F16767" d="M945.139,134.604
	c12.925-2.144,12.894,16.082,2.475,16.829C937.528,152.156,933.501,136.533,945.139,134.604z M943.188,140.039
	c0.354,6.105,11.793,5.222,8.415-2.97C947.886,133.828,942.958,136.051,943.188,140.039z"/>
<path opacity="0.7" fill-rule="evenodd" clip-rule="evenodd" fill="#F16767" d="M752.642,141.602
	c8.764-1.454,8.742,10.904,1.678,11.41C747.481,153.501,744.751,142.909,752.642,141.602z M751.319,145.286
	c0.24,4.14,7.996,3.541,5.706-2.014C754.504,141.075,751.163,142.583,751.319,145.286z"/>
<path opacity="0.7" fill-rule="evenodd" clip-rule="evenodd" fill="#F16767" d="M274.715,78.8
	c12.925-2.144,12.894,16.082,2.475,16.829C267.104,96.352,263.077,80.729,274.715,78.8z M271.765,84.234
	c0.354,6.105,11.793,5.222,8.415-2.97C276.462,78.023,271.534,80.247,271.765,84.234z"/>
<path opacity="0.7" fill-rule="evenodd" clip-rule="evenodd" fill="#F16767" d="M262.365,539.372c6.792-1.126,6.775,8.451,1.3,8.844
	C258.365,548.596,256.249,540.385,262.365,539.372z M260.814,542.229c0.186,3.207,6.197,2.743,4.422-1.562
	C263.283,538.964,260.693,540.133,260.814,542.229z"/>
<path opacity="0.7" fill-rule="evenodd" clip-rule="evenodd" fill="#F16767" d="M215.743,195.096
	c11.446-1.898,11.418,14.243,2.191,14.904C209.003,210.64,205.437,196.804,215.743,195.096z M213.13,199.909
	c0.313,5.407,10.444,4.625,7.452-2.63C217.29,194.408,212.926,196.377,213.13,199.909z"/>
<path opacity="0.7" fill-rule="evenodd" clip-rule="evenodd" fill="#F16767" d="M76.432,114.895
	c9.409-1.561,9.386,11.708,1.801,12.251C70.892,127.672,67.96,116.299,76.432,114.895z M72.828,119.579
	c0.257,4.445,8.585,3.801,6.126-2.162C76.248,115.058,72.661,116.677,72.828,119.579z"/>
<path opacity="0.7" fill-rule="evenodd" clip-rule="evenodd" fill="#F16767" d="M164.414,432
	c12.925-2.144,12.894,16.082,2.475,16.829C156.803,449.552,152.776,433.929,164.414,432z M161.463,437.435
	c0.354,6.105,11.793,5.222,8.415-2.97C166.161,431.224,161.233,433.447,161.463,437.435z"/>
<path opacity="0.7" fill-rule="evenodd" clip-rule="evenodd" fill="#F16767" d="M60.035,472.287
	c7.924-1.314,7.904,9.859,1.517,10.316C55.369,483.047,52.9,473.469,60.035,472.287z M58.226,475.619
	c0.216,3.742,7.229,3.201,5.159-1.821C61.105,471.811,58.084,473.174,58.226,475.619z"/>
<path opacity="0.7" fill-rule="evenodd" clip-rule="evenodd" fill="#F16767" d="M79.171,258.833c6.694-1.11,6.677,8.329,1.282,8.715
	C75.23,267.922,73.145,259.832,79.171,258.833z M77.644,261.647c0.183,3.162,6.107,2.704,4.358-1.538
	C80.076,258.431,77.524,259.583,77.644,261.647z"/>
<path opacity="0.7" fill-rule="evenodd" clip-rule="evenodd" fill="#F16767" d="M63.037,265.279
	c12.925-2.144,12.894,16.082,2.475,16.829C55.427,282.831,51.399,267.208,63.037,265.279z M62.087,270.714
	c0.354,6.105,11.793,5.222,8.415-2.97C66.784,264.503,61.856,266.727,62.087,270.714z"/>
<path opacity="0.7" fill-rule="evenodd" clip-rule="evenodd" fill="#F16767" d="M845.253,273.029
	c12.926-2.144,12.895,16.082,2.475,16.829C837.644,290.581,833.616,274.958,845.253,273.029z M842.304,278.464
	c0.354,6.105,11.793,5.222,8.414-2.97C847.001,272.253,842.073,274.477,842.304,278.464z"/>
<path opacity="0.7" fill-rule="evenodd" clip-rule="evenodd" fill="#15C2D2" d="M732.896,133.033
	c12.926-2.144,12.895,16.082,2.475,16.829C725.286,150.585,721.259,134.962,732.896,133.033z M730.946,138.468
	c0.354,6.105,11.793,5.222,8.414-2.97C735.644,132.257,730.716,134.48,730.946,138.468z"/>
<path opacity="0.7" fill-rule="evenodd" clip-rule="evenodd" fill="#15C2D2" d="M901.898,477.998
	c6.029-3.259,9.114,5.762,4.087,7.904C901.12,487.975,896.47,480.932,901.898,477.998z M901.859,481.018
	c1.213,2.961,6.721,0.578,3.656-2.9C903.126,477.146,901.066,479.086,901.859,481.018z"/>
<path opacity="0.7" fill-rule="evenodd" clip-rule="evenodd" fill="#15C2D2" d="M963.419,153.333
	c8.928-1.48,8.906,11.109,1.709,11.625C958.162,165.457,955.381,154.666,963.419,153.333z M962.072,157.087
	c0.244,4.217,8.146,3.607,5.812-2.051C965.317,152.797,961.913,154.333,962.072,157.087z"/>
<path opacity="0.7" fill-rule="evenodd" clip-rule="evenodd" fill="#15C2D2" d="M930.997,149.646c6.9,0.92,4.052,10.176-1.359,8.936
	C924.401,157.382,924.784,148.818,930.997,149.646z M929.162,152.105c-0.771,3.157,5.18,4.486,4.736-0.201
	C932.514,149.68,929.664,150.043,929.162,152.105z"/>
<path opacity="0.7" fill-rule="evenodd" clip-rule="evenodd" fill="#15C2D2" d="M929.947,317.934
	c12.925-2.144,12.894,16.082,2.475,16.829C922.337,335.486,918.31,319.863,929.947,317.934z M929.997,328.369
	c0.354,6.105,11.793,5.222,8.415-2.97C934.694,322.158,929.767,324.381,929.997,328.369z"/>
<path opacity="0.7" fill-rule="evenodd" clip-rule="evenodd" fill="#15C2D2" d="M919.095,456.014
	c12.925-2.144,12.894,16.082,2.475,16.829C911.484,473.565,907.457,457.942,919.095,456.014z M914.145,462.448
	c0.354,6.105,11.793,5.222,8.415-2.97C918.842,456.237,913.914,458.461,914.145,462.448z"/>
<path opacity="0.7" fill-rule="evenodd" clip-rule="evenodd" fill="#15C2D2" d="M248.625,547.351
	c12.925-2.144,12.894,16.082,2.475,16.829C241.015,564.902,236.987,549.279,248.625,547.351z M243.675,553.785
	c0.354,6.105,11.793,5.222,8.415-2.97C248.372,547.574,243.444,549.798,243.675,553.785z"/>
<path opacity="0.7" fill-rule="evenodd" clip-rule="evenodd" fill="#15C2D2" d="M197.389,203.722
	c9.855-1.635,9.831,12.262,1.887,12.832C191.586,217.105,188.515,205.192,197.389,203.722z M193.614,208.628
	c0.27,4.655,8.992,3.981,6.417-2.265C197.196,203.893,193.439,205.588,193.614,208.628z"/>
<path opacity="0.7" fill-rule="evenodd" clip-rule="evenodd" fill="#15C2D2" d="M830.357,63.365
	c21.303-3.533,21.251,26.506,4.079,27.737C817.814,92.293,811.177,66.543,830.357,63.365z M822.199,73.97
	c0.582,10.063,19.437,8.606,13.869-4.895C829.94,63.733,821.819,67.398,822.199,73.97z"/>
<path opacity="0.7" fill-rule="evenodd" clip-rule="evenodd" fill="#15C2D2" d="M856.76,264.013
	c7.953-1.319,7.934,9.896,1.522,10.355C852.077,274.813,849.6,265.2,856.76,264.013z M853.714,267.972
	c0.218,3.756,7.257,3.213,5.178-1.828C856.604,264.15,853.572,265.519,853.714,267.972z"/>
<path opacity="0.7" fill-rule="evenodd" clip-rule="evenodd" fill="#15C2D2" d="M73.928,458.055
	c12.925-2.145,12.894,16.082,2.475,16.828C66.318,475.605,62.291,459.982,73.928,458.055z M68.978,464.488
	c0.354,6.105,11.793,5.223,8.415-2.969C73.675,458.277,68.748,460.502,68.978,464.488z"/>
<path opacity="0.7" fill-rule="evenodd" clip-rule="evenodd" fill="#15C2D2" d="M60.169,248.708
	c7.695-1.276,7.677,9.575,1.474,10.02C55.638,259.158,53.241,249.856,60.169,248.708z M57.222,252.539
	c0.21,3.635,7.021,3.109,5.01-1.768C60.019,248.841,57.085,250.165,57.222,252.539z"/>
<path opacity="0.7" fill-rule="evenodd" clip-rule="evenodd" fill="#15C2D2" d="M93.047,99.098
	c12.925-2.144,12.894,16.082,2.475,16.829C85.437,116.649,81.409,101.026,93.047,99.098z M91.097,109.532
	c0.354,6.105,11.793,5.222,8.415-2.97C95.794,103.321,90.866,105.545,91.097,109.532z"/>
<path opacity="0.7" fill-rule="evenodd" clip-rule="evenodd" fill="#15C2D2" d="M72.774,477.977
	c15.286-2.535,15.249,19.02,2.927,19.902C63.773,498.734,59.011,480.258,72.774,477.977z M70.468,490.316
	c0.418,7.221,13.947,6.176,9.952-3.512C76.023,482.972,70.195,485.602,70.468,490.316z"/>
</svg>
