<?xml version="1.0" encoding="utf-8"?>
<!-- Generator: Adobe Illustrator 15.1.0, SVG Export Plug-In . SVG Version: 6.00 Build 0)  -->
<!DOCTYPE svg PUBLIC "-//W3C//DTD SVG 1.1//EN" "http://www.w3.org/Graphics/SVG/1.1/DTD/svg11.dtd">
<svg version="1.1" xmlns="http://www.w3.org/2000/svg" xmlns:xlink="http://www.w3.org/1999/xlink" x="0px" y="0px" width="1024px"
	 height="768px" viewBox="0 0 1024 768" enable-background="new 0 0 1024 768" xml:space="preserve">
<g id="Calque_1" display="none">
</g>
<g id="Calque_2">
	<rect y="1" fill="#EE6557" width="1024" height="767"/>
</g>
<g id="Calque_2_-_copie_4" display="none">
	<rect y="1" display="inline" fill="#16A6B6" width="1024" height="767"/>
</g>
<g id="Calque_2_-_copie_2" display="none">
</g>
<g id="Calque_2_-_copie" display="none">
	<polygon display="inline" opacity="0.05" fill="#FFFFFF" points="265.848,433.216 141.553,342.293 86.669,302.146 445.331,187.854 
			"/>
	<polygon display="inline" opacity="0.05" fill="#FFFFFF" points="217.144,147.146 111.142,35.434 64.335,-13.893 526,-44 	"/>
	
		<rect x="510.499" y="-121.611" transform="matrix(0.8331 0.5532 -0.5532 0.8331 186.5891 -323.3764)" display="inline" opacity="0.07" fill="#FFFFFF" width="237.133" height="538.129"/>
	
		<rect x="711.499" y="-81.611" transform="matrix(0.8331 0.5532 -0.5532 0.8331 242.2727 -427.8898)" display="inline" opacity="0.03" fill="#FFFFFF" width="237.133" height="538.129"/>
</g>
<g id="Calque_2_-_copie_3">
	<polygon opacity="0.07" fill="#FFFFFF" points="0,539 142,768 433,162 	"/>
	<polygon opacity="0.05" fill="#FFFFFF" points="224.736,246 453.289,1 13.467,1 74,76 	"/>
	<polygon opacity="0.07" fill="#FFFFFF" points="811.553,1 583.991,1 224.736,768 452.298,768 	"/>
	<polygon opacity="0.07" fill="#FFFFFF" points="1020.553,1 940.565,1 586.289,768 666.276,768 	"/>
	<polygon opacity="0.05" fill="#FFFFFF" points="1024,1 908.646,1 549.391,768 736.953,768 1024,293.639 	"/>
	<polygon opacity="0.07" fill="#FFFFFF" points="452.298,768 509.391,768 868.646,1 811.553,1 	"/>
	<polygon opacity="0.03" fill="#FFFFFF" points="452.298,768 509.391,768 868.646,1 811.553,1 	"/>
</g>
</svg>
